<svg xmlns="http://www.w3.org/2000/svg" viewBox="0 0 16 16" id="Ship-Fill--Streamline-Mingcute-Fill" height="16" width="16">
  <desc>
    Ship Fill Streamline Icon: https://streamlinehq.com
  </desc>
  <g fill="none" fill-rule="evenodd">
    <path d="M16 0v16H0V0h16ZM8.395333333333333 15.505333333333333l-0.007333333333333332 0.0013333333333333333 -0.047333333333333324 0.023333333333333334 -0.013333333333333332 0.0026666666666666666 -0.009333333333333332 -0.0026666666666666666 -0.047333333333333324 -0.023333333333333334c-0.006666666666666666 -0.0026666666666666666 -0.012666666666666666 -0.0006666666666666666 -0.016 0.003333333333333333l-0.0026666666666666666 0.006666666666666666 -0.011333333333333334 0.2853333333333333 0.003333333333333333 0.013333333333333332 0.006666666666666666 0.008666666666666666 0.06933333333333333 0.049333333333333326 0.009999999999999998 0.0026666666666666666 0.008 -0.0026666666666666666 0.06933333333333333 -0.049333333333333326 0.008 -0.010666666666666666 0.0026666666666666666 -0.011333333333333334 -0.011333333333333334 -0.2846666666666666c-0.0013333333333333333 -0.006666666666666666 -0.005999999999999999 -0.011333333333333334 -0.011333333333333334 -0.011999999999999999Zm0.17666666666666667 -0.07533333333333334 -0.008666666666666666 0.0013333333333333333 -0.12333333333333332 0.062 -0.006666666666666666 0.006666666666666666 -0.002 0.007333333333333332 0.011999999999999999 0.2866666666666666 0.003333333333333333 0.008 0.005333333333333333 0.004666666666666666 0.134 0.062c0.008 0.0026666666666666666 0.015333333333333332 0 0.019333333333333334 -0.005333333333333333l0.0026666666666666666 -0.009333333333333332 -0.02266666666666667 -0.4093333333333333c-0.002 -0.008 -0.006666666666666666 -0.013333333333333332 -0.013333333333333332 -0.014666666666666665Zm-0.4766666666666666 0.0013333333333333333a0.015333333333333332 0.015333333333333332 0 0 0 -0.018 0.004l-0.004 0.009333333333333332 -0.02266666666666667 0.4093333333333333c0 0.008 0.004666666666666666 0.013333333333333332 0.011333333333333334 0.016l0.009999999999999998 -0.0013333333333333333 0.134 -0.062 0.006666666666666666 -0.005333333333333333 0.0026666666666666666 -0.007333333333333332 0.011333333333333334 -0.2866666666666666 -0.002 -0.008 -0.006666666666666666 -0.006666666666666666 -0.12266666666666666 -0.06133333333333333Z" stroke-width="0.6667"></path>
    <path fill="#000000" d="M9.474 11.850666666666665a2.6666666666666665 2.6666666666666665 0 0 1 2.2426666666666666 -0.066l0.14266666666666666 0.06666666666666667 1.7719999999999998 0.8853333333333333a0.6666666666666666 0.6666666666666666 0 0 1 -0.5246666666666666 1.2233333333333332l-0.07133333333333333 -0.030666666666666665 -1.7726666666666664 -0.8859999999999999a1.3333333333333333 1.3333333333333333 0 0 0 -1.0779999999999998 -0.050666666666666665l-0.11466666666666665 0.050666666666666665 -0.8773333333333333 0.43933333333333335a2.6666666666666665 2.6666666666666665 0 0 1 -2.243333333333333 0.06533333333333333l-0.142 -0.06533333333333333 -0.8779999999999999 -0.43933333333333335a1.3333333333333333 1.3333333333333333 0 0 0 -1.0779999999999998 -0.050666666666666665l-0.11466666666666665 0.050666666666666665 -1.7719999999999998 0.8866666666666667a0.6666666666666666 0.6666666666666666 0 0 1 -0.6639999999999999 -1.154l0.06799999999999999 -0.03933333333333333 1.7719999999999998 -0.8859999999999999a2.6666666666666665 2.6666666666666665 0 0 1 2.2426666666666666 -0.066l0.14266666666666666 0.06666666666666667 0.8773333333333333 0.43866666666666665a1.3333333333333333 1.3333333333333333 0 0 0 1.0786666666666667 0.050666666666666665l0.114 -0.050666666666666665 0.8779999999999999 -0.43933333333333335ZM8.666666666666666 1.3333333333333333a0.6666666666666666 0.6666666666666666 0 0 1 0.6666666666666666 0.6666666666666666v0.88l2.219333333333333 0.36933333333333335a1.3333333333333333 1.3333333333333333 0 0 1 1.1133333333333333 1.3153333333333332v2.288l1.3733333333333333 0.45733333333333337a0.8333333333333333 0.8333333333333333 0 0 1 0.502 1.1193333333333333l-1.446 3.373333333333333 -1.236 -0.6186666666666667a2.6666666666666665 2.6666666666666665 0 0 0 -2.385333333333333 0l-0.8779999999999999 0.43933333333333335a1.3333333333333333 1.3333333333333333 0 0 1 -1.1926666666666665 0l-0.8773333333333333 -0.43933333333333335a2.6666666666666665 2.6666666666666665 0 0 0 -2.385333333333333 0l-0.8466666666666667 0.424 -1.7719999999999998 -3.1006666666666662a0.8333333333333333 0.8333333333333333 0 0 1 0.45999999999999996 -1.204L3.333333333333333 6.852666666666666V4.564666666666667a1.3333333333333333 1.3333333333333333 0 0 1 1.1133333333333333 -1.3153333333333332L6.666666666666666 2.88V2a0.6666666666666666 0.6666666666666666 0 0 1 0.6666666666666666 -0.6666666666666666h1.3333333333333333Zm-0.6666666666666666 2.676 -3.333333333333333 0.5553333333333332v1.8439999999999999l2.9113333333333333 -0.9706666666666666a1.3333333333333333 1.3333333333333333 0 0 1 0.8433333333333333 0L11.333333333333332 6.408666666666666V4.564666666666667l-3.333333333333333 -0.5553333333333332Z" stroke-width="0.6667"></path>
  </g>
</svg>